<svg width="1280" height="800" viewBox="0 0 1280 800" fill="none" xmlns="http://www.w3.org/2000/svg">
  <!-- Browser chrome -->
  <rect width="1280" height="800" rx="8" fill="#0A0A0A"/>
  <rect width="1280" height="40" rx="8" fill="#1A1A1A"/>
  <circle cx="24" cy="20" r="6" fill="#FF5F57"/>
  <circle cx="44" cy="20" r="6" fill="#FFBD2E"/>
  <circle cx="64" cy="20" r="6" fill="#28CA41"/>
  <rect x="200" y="12" width="400" height="16" rx="8" fill="#0A0A0A"/>

  <!-- Nav bar -->
  <rect x="0" y="40" width="1280" height="60" fill="#0A0A0A"/>
  <rect x="40" y="60" width="100" height="14" rx="4" fill="#f5d7b1"/>
  <rect x="500" y="62" width="60" height="10" rx="4" fill="#444"/>
  <rect x="590" y="62" width="60" height="10" rx="4" fill="#444"/>
  <rect x="680" y="62" width="60" height="10" rx="4" fill="#444"/>
  <rect x="1140" y="55" width="100" height="30" rx="15" fill="#f5d7b1"/>

  <!-- Hero section - product showcase -->
  <rect x="60" y="140" width="500" height="40" rx="4" fill="#222"/>
  <rect x="60" y="200" width="400" height="16" rx="4" fill="#1a1a1a"/>
  <rect x="60" y="230" width="350" height="16" rx="4" fill="#1a1a1a"/>
  <rect x="60" y="280" width="140" height="44" rx="22" fill="#f5d7b1"/>
  <rect x="220" y="280" width="140" height="44" rx="22" fill="none" stroke="#444" stroke-width="2"/>

  <!-- 3D Product placeholder -->
  <rect x="640" y="120" width="580" height="400" rx="12" fill="#111111"/>
  <!-- Abstract 3D shape representation -->
  <ellipse cx="930" cy="300" rx="180" ry="140" fill="#1a1a1a"/>
  <ellipse cx="930" cy="300" rx="140" ry="100" fill="#222"/>
  <ellipse cx="930" cy="280" rx="100" ry="70" fill="#ceab8e" opacity="0.3"/>
  <ellipse cx="920" cy="270" rx="60" ry="40" fill="#f5d7b1" opacity="0.4"/>
  <!-- Reflection line -->
  <line x1="750" y1="440" x2="1110" y2="440" stroke="#222" stroke-width="1"/>

  <!-- Product grid -->
  <rect x="60" y="560" width="270" height="200" rx="8" fill="#111111"/>
  <rect x="80" y="580" width="230" height="120" rx="4" fill="#1a1a1a"/>
  <rect x="80" y="715" width="120" height="10" rx="4" fill="#333"/>
  <rect x="80" y="735" width="80" height="10" rx="4" fill="#ceab8e" opacity="0.6"/>

  <rect x="365" y="560" width="270" height="200" rx="8" fill="#111111"/>
  <rect x="385" y="580" width="230" height="120" rx="4" fill="#1a1a1a"/>
  <rect x="385" y="715" width="120" height="10" rx="4" fill="#333"/>
  <rect x="385" y="735" width="80" height="10" rx="4" fill="#ceab8e" opacity="0.6"/>

  <rect x="670" y="560" width="270" height="200" rx="8" fill="#111111"/>
  <rect x="690" y="580" width="230" height="120" rx="4" fill="#1a1a1a"/>
  <rect x="690" y="715" width="120" height="10" rx="4" fill="#333"/>
  <rect x="690" y="735" width="80" height="10" rx="4" fill="#ceab8e" opacity="0.6"/>

  <rect x="975" y="560" width="270" height="200" rx="8" fill="#111111"/>
  <rect x="995" y="580" width="230" height="120" rx="4" fill="#1a1a1a"/>
  <rect x="995" y="715" width="120" height="10" rx="4" fill="#333"/>
  <rect x="995" y="735" width="80" height="10" rx="4" fill="#ceab8e" opacity="0.6"/>
</svg>
