<svg width="1280" height="800" viewBox="0 0 1280 800" fill="none" xmlns="http://www.w3.org/2000/svg">
  <rect width="1280" height="800" rx="8" fill="#0A0A0A"/>
  <rect width="1280" height="40" rx="8" fill="#1A1A1A"/>
  <circle cx="24" cy="20" r="6" fill="#FF5F57"/>
  <circle cx="44" cy="20" r="6" fill="#FFBD2E"/>
  <circle cx="64" cy="20" r="6" fill="#28CA41"/>
  <!-- Breadcrumb -->
  <rect x="60" y="65" width="200" height="8" rx="3" fill="#333"/>
  <!-- Product 3D viewer area -->
  <rect x="60" y="100" width="700" height="500" rx="12" fill="#111111"/>
  <ellipse cx="410" cy="340" rx="220" ry="170" fill="#1a1a1a"/>
  <ellipse cx="410" cy="330" rx="170" ry="120" fill="#222"/>
  <ellipse cx="400" cy="310" rx="120" ry="80" fill="#ceab8e" opacity="0.25"/>
  <ellipse cx="390" cy="300" rx="70" ry="50" fill="#f5d7b1" opacity="0.35"/>
  <!-- 360 controls -->
  <rect x="340" y="540" width="140" height="36" rx="18" fill="#222"/>
  <rect x="365" y="553" width="90" height="10" rx="5" fill="#444"/>
  <!-- Thumbnails -->
  <rect x="60" y="620" width="100" height="80" rx="6" fill="#111111" stroke="#f5d7b1" stroke-width="2"/>
  <rect x="175" y="620" width="100" height="80" rx="6" fill="#111111"/>
  <rect x="290" y="620" width="100" height="80" rx="6" fill="#111111"/>
  <rect x="405" y="620" width="100" height="80" rx="6" fill="#111111"/>
  <!-- Product info panel -->
  <rect x="800" y="100" width="440" height="500" rx="0" fill="none"/>
  <rect x="820" y="110" width="200" height="24" rx="4" fill="#333"/>
  <rect x="820" y="150" width="300" height="10" rx="3" fill="#1a1a1a"/>
  <rect x="820" y="170" width="260" height="10" rx="3" fill="#1a1a1a"/>
  <rect x="820" y="210" width="120" height="28" rx="4" fill="#f5d7b1" opacity="0.7"/>
  <!-- Color options -->
  <rect x="820" y="270" width="80" height="8" rx="3" fill="#444"/>
  <circle cx="835" cy="300" r="14" fill="#ceab8e"/>
  <circle cx="870" cy="300" r="14" fill="#4d6071"/>
  <circle cx="905" cy="300" r="14" fill="#6B8F71"/>
  <circle cx="940" cy="300" r="14" fill="#442f24"/>
  <circle cx="835" cy="300" r="14" fill="none" stroke="#f5d7b1" stroke-width="2"/>
  <!-- Size options -->
  <rect x="820" y="340" width="80" height="8" rx="3" fill="#444"/>
  <rect x="820" y="365" width="50" height="36" rx="6" fill="#222"/>
  <rect x="880" y="365" width="50" height="36" rx="6" fill="#222"/>
  <rect x="940" y="365" width="50" height="36" rx="6" fill="#f5d7b1" opacity="0.15" stroke="#f5d7b1" stroke-width="1"/>
  <rect x="1000" y="365" width="50" height="36" rx="6" fill="#222"/>
  <!-- CTA -->
  <rect x="820" y="440" width="400" height="50" rx="25" fill="#f5d7b1"/>
  <rect x="820" y="510" width="400" height="50" rx="25" fill="none" stroke="#444" stroke-width="2"/>
</svg>
