<svg width="1280" height="800" viewBox="0 0 1280 800" fill="none" xmlns="http://www.w3.org/2000/svg">
  <rect width="1280" height="800" rx="8" fill="#0A0A0A"/>
  <rect width="1280" height="40" rx="8" fill="#1A1A1A"/>
  <circle cx="24" cy="20" r="6" fill="#FF5F57"/>
  <circle cx="44" cy="20" r="6" fill="#FFBD2E"/>
  <circle cx="64" cy="20" r="6" fill="#28CA41"/>
  <!-- Export modal overlay -->
  <rect width="1280" height="800" fill="#000" opacity="0.5"/>
  <!-- Modal -->
  <rect x="290" y="120" width="700" height="560" rx="16" fill="#111111" stroke="#222" stroke-width="1"/>
  <!-- Modal header -->
  <rect x="330" y="155" width="160" height="18" rx="4" fill="#f5d7b1" opacity="0.7"/>
  <rect x="330" y="185" width="300" height="8" rx="3" fill="#333"/>
  <!-- Preview area -->
  <rect x="330" y="220" width="340" height="260" rx="8" fill="#0A0A0A"/>
  <defs>
    <linearGradient id="eg1" x1="0%" y1="0%" x2="100%" y2="100%">
      <stop offset="0%" stop-color="#f5d7b1" stop-opacity="0.5"/>
      <stop offset="50%" stop-color="#ceab8e" stop-opacity="0.3"/>
      <stop offset="100%" stop-color="#6B8F71" stop-opacity="0.5"/>
    </linearGradient>
  </defs>
  <ellipse cx="460" cy="340" rx="120" ry="90" fill="url(#eg1)"/>
  <ellipse cx="520" cy="360" rx="80" ry="70" fill="#4d6071" opacity="0.2"/>
  <!-- Format options -->
  <rect x="700" y="220" width="250" height="56" rx="8" fill="#0A0A0A" stroke="#f5d7b1" stroke-width="1"/>
  <rect x="720" y="238" width="40" height="10" rx="3" fill="#f5d7b1" opacity="0.6"/>
  <rect x="720" y="255" width="180" height="6" rx="3" fill="#333"/>
  <rect x="700" y="290" width="250" height="56" rx="8" fill="#0A0A0A"/>
  <rect x="720" y="308" width="40" height="10" rx="3" fill="#6B8F71" opacity="0.6"/>
  <rect x="720" y="325" width="180" height="6" rx="3" fill="#333"/>
  <rect x="700" y="360" width="250" height="56" rx="8" fill="#0A0A0A"/>
  <rect x="720" y="378" width="40" height="10" rx="3" fill="#4d6071" opacity="0.6"/>
  <rect x="720" y="395" width="180" height="6" rx="3" fill="#333"/>
  <rect x="700" y="430" width="250" height="56" rx="8" fill="#0A0A0A"/>
  <rect x="720" y="448" width="60" height="10" rx="3" fill="#ceab8e" opacity="0.6"/>
  <rect x="720" y="465" width="180" height="6" rx="3" fill="#333"/>
  <!-- Code preview -->
  <rect x="330" y="500" width="620" height="100" rx="8" fill="#0A0A0A"/>
  <rect x="350" y="520" width="200" height="6" rx="3" fill="#6B8F71" opacity="0.4"/>
  <rect x="350" y="535" width="280" height="6" rx="3" fill="#f5d7b1" opacity="0.3"/>
  <rect x="350" y="550" width="240" height="6" rx="3" fill="#f5d7b1" opacity="0.3"/>
  <rect x="350" y="565" width="160" height="6" rx="3" fill="#6B8F71" opacity="0.4"/>
  <!-- Export button -->
  <rect x="330" y="620" width="620" height="44" rx="22" fill="#f5d7b1"/>
</svg>
