<svg width="1280" height="800" viewBox="0 0 1280 800" fill="none" xmlns="http://www.w3.org/2000/svg">
  <rect width="1280" height="800" rx="8" fill="#0A0A0A"/>
  <rect width="1280" height="40" rx="8" fill="#1A1A1A"/>
  <circle cx="24" cy="20" r="6" fill="#FF5F57"/>
  <circle cx="44" cy="20" r="6" fill="#FFBD2E"/>
  <circle cx="64" cy="20" r="6" fill="#28CA41"/>
  <!-- Terminal showing generated site preview -->
  <!-- Success output -->
  <rect x="60" y="80" width="14" height="14" rx="2" fill="#6B8F71"/>
  <rect x="85" y="82" width="300" height="10" rx="3" fill="#6B8F71" opacity="0.7"/>
  <rect x="85" y="108" width="250" height="8" rx="3" fill="#444"/>
  <rect x="85" y="128" width="280" height="8" rx="3" fill="#444"/>
  <rect x="85" y="148" width="200" height="8" rx="3" fill="#444"/>
  <!-- File tree -->
  <rect x="60" y="185" width="14" height="14" rx="2" fill="#f5d7b1"/>
  <rect x="85" y="187" width="200" height="10" rx="3" fill="#f5d7b1" opacity="0.6"/>
  <rect x="100" y="215" width="180" height="8" rx="3" fill="#ceab8e" opacity="0.4"/>
  <rect x="100" y="235" width="160" height="8" rx="3" fill="#444"/>
  <rect x="120" y="255" width="200" height="8" rx="3" fill="#444"/>
  <rect x="120" y="275" width="180" height="8" rx="3" fill="#444"/>
  <rect x="120" y="295" width="220" height="8" rx="3" fill="#444"/>
  <rect x="100" y="315" width="140" height="8" rx="3" fill="#444"/>
  <rect x="120" y="335" width="200" height="8" rx="3" fill="#444"/>
  <rect x="100" y="355" width="170" height="8" rx="3" fill="#444"/>
  <rect x="120" y="375" width="190" height="8" rx="3" fill="#444"/>
  <rect x="120" y="395" width="160" height="8" rx="3" fill="#444"/>
  <!-- Deploy output -->
  <rect x="60" y="435" width="14" height="14" rx="2" fill="#4d6071"/>
  <rect x="85" y="437" width="250" height="10" rx="3" fill="#4d6071" opacity="0.6"/>
  <rect x="85" y="465" width="300" height="8" rx="3" fill="#444"/>
  <rect x="85" y="485" width="260" height="8" rx="3" fill="#444"/>
  <rect x="85" y="505" width="280" height="8" rx="3" fill="#6B8F71" opacity="0.4"/>
  <!-- URL output -->
  <rect x="60" y="545" width="14" height="14" rx="2" fill="#6B8F71"/>
  <rect x="85" y="547" width="350" height="10" rx="3" fill="#6B8F71" opacity="0.8"/>
  <!-- Browser preview inset -->
  <rect x="700" y="80" width="520" height="360" rx="8" fill="#111111" stroke="#222" stroke-width="1"/>
  <rect x="700" y="80" width="520" height="24" rx="8" fill="#1a1a1a"/>
  <circle cx="716" cy="92" r="4" fill="#FF5F57" opacity="0.6"/>
  <circle cx="730" cy="92" r="4" fill="#FFBD2E" opacity="0.6"/>
  <circle cx="744" cy="92" r="4" fill="#28CA41" opacity="0.6"/>
  <rect x="720" y="125" width="200" height="16" rx="4" fill="#333"/>
  <rect x="720" y="155" width="300" height="8" rx="3" fill="#1a1a1a"/>
  <rect x="720" y="175" width="260" height="8" rx="3" fill="#1a1a1a"/>
  <rect x="720" y="210" width="480" height="120" rx="6" fill="#0A0A0A"/>
  <rect x="720" y="350" width="150" height="60" rx="6" fill="#0A0A0A"/>
  <rect x="885" y="350" width="150" height="60" rx="6" fill="#0A0A0A"/>
  <rect x="1050" y="350" width="150" height="60" rx="6" fill="#0A0A0A"/>
</svg>
