<svg width="1280" height="800" viewBox="0 0 1280 800" fill="none" xmlns="http://www.w3.org/2000/svg">
  <!-- Browser chrome -->
  <rect width="1280" height="800" rx="8" fill="#0A0A0A"/>
  <rect width="1280" height="40" rx="8" fill="#1A1A1A"/>
  <circle cx="24" cy="20" r="6" fill="#FF5F57"/>
  <circle cx="44" cy="20" r="6" fill="#FFBD2E"/>
  <circle cx="64" cy="20" r="6" fill="#28CA41"/>

  <!-- Sidebar - note list -->
  <rect x="0" y="40" width="300" height="760" fill="#0F0F0F"/>
  <rect x="20" y="65" width="260" height="30" rx="6" fill="#1a1a1a"/>
  <rect x="20" y="115" width="260" height="60" rx="6" fill="#111111" stroke="#6B8F71" stroke-width="1"/>
  <rect x="35" y="128" width="140" height="10" rx="3" fill="#6B8F71" opacity="0.7"/>
  <rect x="35" y="148" width="200" height="8" rx="3" fill="#333"/>
  <rect x="20" y="190" width="260" height="60" rx="6" fill="#111111"/>
  <rect x="35" y="203" width="120" height="10" rx="3" fill="#444"/>
  <rect x="35" y="223" width="180" height="8" rx="3" fill="#222"/>
  <rect x="20" y="265" width="260" height="60" rx="6" fill="#111111"/>
  <rect x="35" y="278" width="160" height="10" rx="3" fill="#444"/>
  <rect x="35" y="298" width="190" height="8" rx="3" fill="#222"/>
  <rect x="20" y="340" width="260" height="60" rx="6" fill="#111111"/>
  <rect x="35" y="353" width="100" height="10" rx="3" fill="#444"/>
  <rect x="35" y="373" width="170" height="8" rx="3" fill="#222"/>

  <!-- Editor area -->
  <rect x="300" y="40" width="980" height="760" fill="#0A0A0A"/>
  <!-- Title -->
  <rect x="380" y="90" width="500" height="28" rx="4" fill="#333"/>
  <!-- Editor toolbar -->
  <rect x="380" y="140" width="520" height="30" rx="6" fill="#111111"/>
  <rect x="395" y="148" width="20" height="14" rx="3" fill="#333"/>
  <rect x="425" y="148" width="20" height="14" rx="3" fill="#333"/>
  <rect x="455" y="148" width="20" height="14" rx="3" fill="#333"/>
  <rect x="485" y="148" width="20" height="14" rx="3" fill="#333"/>
  <line x1="515" y1="145" x2="515" y2="165" stroke="#222" stroke-width="1"/>
  <rect x="525" y="148" width="20" height="14" rx="3" fill="#333"/>
  <rect x="555" y="148" width="20" height="14" rx="3" fill="#333"/>

  <!-- Content lines -->
  <rect x="380" y="200" width="600" height="10" rx="3" fill="#1a1a1a"/>
  <rect x="380" y="225" width="520" height="10" rx="3" fill="#1a1a1a"/>
  <rect x="380" y="250" width="580" height="10" rx="3" fill="#1a1a1a"/>
  <rect x="380" y="275" width="400" height="10" rx="3" fill="#1a1a1a"/>
  <rect x="380" y="315" width="560" height="10" rx="3" fill="#1a1a1a"/>
  <rect x="380" y="340" width="620" height="10" rx="3" fill="#1a1a1a"/>
  <rect x="380" y="365" width="480" height="10" rx="3" fill="#1a1a1a"/>
  <rect x="380" y="390" width="540" height="10" rx="3" fill="#1a1a1a"/>
  <rect x="380" y="415" width="300" height="10" rx="3" fill="#1a1a1a"/>

  <!-- Code block -->
  <rect x="380" y="455" width="620" height="120" rx="6" fill="#111111"/>
  <rect x="400" y="475" width="200" height="8" rx="3" fill="#6B8F71" opacity="0.5"/>
  <rect x="400" y="495" width="300" height="8" rx="3" fill="#4d6071" opacity="0.5"/>
  <rect x="400" y="515" width="250" height="8" rx="3" fill="#4d6071" opacity="0.5"/>
  <rect x="400" y="535" width="180" height="8" rx="3" fill="#6B8F71" opacity="0.5"/>

  <!-- Cursor blink indicator -->
  <rect x="380" y="600" width="2" height="16" fill="#6B8F71"/>
</svg>
