<svg width="1280" height="800" viewBox="0 0 1280 800" fill="none" xmlns="http://www.w3.org/2000/svg">
  <!-- Background -->
  <rect width="1280" height="800" rx="8" fill="#0A0A0A"/>

  <!-- Terminal chrome -->
  <rect width="1280" height="40" rx="8" fill="#1A1A1A"/>
  <circle cx="24" cy="20" r="6" fill="#FF5F57"/>
  <circle cx="44" cy="20" r="6" fill="#FFBD2E"/>
  <circle cx="64" cy="20" r="6" fill="#28CA41"/>

  <!-- API documentation layout -->
  <!-- Left nav -->
  <rect x="0" y="40" width="260" height="760" fill="#0F0F0F"/>
  <rect x="20" y="70" width="100" height="16" rx="4" fill="#ceab8e" opacity="0.8"/>
  <rect x="20" y="110" width="80" height="8" rx="3" fill="#444"/>
  <rect x="20" y="132" width="180" height="8" rx="3" fill="#333"/>
  <rect x="20" y="152" width="160" height="8" rx="3" fill="#333"/>
  <rect x="20" y="172" width="140" height="8" rx="3" fill="#333"/>
  <rect x="20" y="210" width="80" height="8" rx="3" fill="#444"/>
  <rect x="20" y="232" width="170" height="8" rx="3" fill="#333"/>
  <rect x="20" y="252" width="150" height="8" rx="3" fill="#333"/>
  <rect x="20" y="272" width="190" height="8" rx="3" fill="#ceab8e" opacity="0.4"/>
  <rect x="20" y="292" width="130" height="8" rx="3" fill="#333"/>

  <!-- Main content -->
  <rect x="290" y="70" width="300" height="24" rx="4" fill="#333"/>
  <rect x="290" y="110" width="500" height="10" rx="3" fill="#1a1a1a"/>
  <rect x="290" y="130" width="460" height="10" rx="3" fill="#1a1a1a"/>

  <!-- Endpoint cards -->
  <rect x="290" y="170" width="660" height="50" rx="6" fill="#111111"/>
  <rect x="310" y="183" width="50" height="24" rx="4" fill="#6B8F71" opacity="0.3"/>
  <text x="323" y="200" font-family="monospace" font-size="12" fill="#6B8F71" text-anchor="middle">GET</text>
  <rect x="375" y="188" width="300" height="10" rx="3" fill="#444"/>

  <rect x="290" y="235" width="660" height="50" rx="6" fill="#111111"/>
  <rect x="310" y="248" width="54" height="24" rx="4" fill="#ceab8e" opacity="0.3"/>
  <text x="337" y="265" font-family="monospace" font-size="12" fill="#ceab8e" text-anchor="middle">POST</text>
  <rect x="375" y="253" width="280" height="10" rx="3" fill="#444"/>

  <rect x="290" y="300" width="660" height="50" rx="6" fill="#111111"/>
  <rect x="310" y="313" width="50" height="24" rx="4" fill="#4d6071" opacity="0.3"/>
  <text x="335" y="330" font-family="monospace" font-size="12" fill="#4d6071" text-anchor="middle">PUT</text>
  <rect x="375" y="318" width="320" height="10" rx="3" fill="#444"/>

  <!-- Code example -->
  <rect x="290" y="380" width="660" height="220" rx="8" fill="#111111"/>
  <rect x="310" y="400" width="180" height="8" rx="3" fill="#ceab8e" opacity="0.5"/>
  <rect x="310" y="420" width="250" height="8" rx="3" fill="#4d6071" opacity="0.5"/>
  <rect x="330" y="440" width="300" height="8" rx="3" fill="#6B8F71" opacity="0.5"/>
  <rect x="330" y="460" width="280" height="8" rx="3" fill="#6B8F71" opacity="0.5"/>
  <rect x="330" y="480" width="200" height="8" rx="3" fill="#f5d7b1" opacity="0.4"/>
  <rect x="310" y="500" width="100" height="8" rx="3" fill="#4d6071" opacity="0.5"/>
  <rect x="310" y="530" width="350" height="8" rx="3" fill="#ceab8e" opacity="0.4"/>
  <rect x="310" y="550" width="250" height="8" rx="3" fill="#333"/>
  <rect x="310" y="570" width="180" height="8" rx="3" fill="#333"/>

  <!-- Response panel on right -->
  <rect x="980" y="70" width="280" height="530" rx="8" fill="#111111"/>
  <rect x="1000" y="90" width="100" height="12" rx="3" fill="#6B8F71" opacity="0.6"/>
  <rect x="1000" y="120" width="240" height="8" rx="3" fill="#1a1a1a"/>
  <rect x="1000" y="140" width="240" height="8" rx="3" fill="#1a1a1a"/>
  <rect x="1000" y="160" width="200" height="8" rx="3" fill="#1a1a1a"/>
  <rect x="1000" y="180" width="240" height="8" rx="3" fill="#1a1a1a"/>
  <rect x="1000" y="200" width="180" height="8" rx="3" fill="#1a1a1a"/>
  <rect x="1000" y="240" width="240" height="8" rx="3" fill="#1a1a1a"/>
  <rect x="1000" y="260" width="200" height="8" rx="3" fill="#1a1a1a"/>
  <rect x="1000" y="280" width="240" height="8" rx="3" fill="#1a1a1a"/>
</svg>
