<svg width="1280" height="800" viewBox="0 0 1280 800" fill="none" xmlns="http://www.w3.org/2000/svg">
  <rect width="1280" height="800" rx="8" fill="#0A0A0A"/>
  <rect width="1280" height="40" rx="8" fill="#1A1A1A"/>
  <circle cx="24" cy="20" r="6" fill="#FF5F57"/>
  <circle cx="44" cy="20" r="6" fill="#FFBD2E"/>
  <circle cx="64" cy="20" r="6" fill="#28CA41"/>
  <!-- Schema explorer layout -->
  <rect x="40" y="70" width="240" height="30" rx="6" fill="#111111"/>
  <rect x="55" y="78" width="120" height="12" rx="4" fill="#ceab8e" opacity="0.6"/>
  <!-- Schema tree - left side -->
  <rect x="40" y="120" width="350" height="640" rx="8" fill="#111111"/>
  <rect x="60" y="145" width="100" height="10" rx="3" fill="#ceab8e" opacity="0.5"/>
  <rect x="80" y="170" width="140" height="8" rx="3" fill="#444"/>
  <rect x="80" y="190" width="120" height="8" rx="3" fill="#444"/>
  <rect x="80" y="210" width="160" height="8" rx="3" fill="#6B8F71" opacity="0.5"/>
  <rect x="80" y="230" width="130" height="8" rx="3" fill="#444"/>
  <rect x="60" y="265" width="100" height="10" rx="3" fill="#ceab8e" opacity="0.5"/>
  <rect x="80" y="290" width="180" height="8" rx="3" fill="#444"/>
  <rect x="80" y="310" width="150" height="8" rx="3" fill="#444"/>
  <rect x="80" y="330" width="170" height="8" rx="3" fill="#4d6071" opacity="0.5"/>
  <rect x="80" y="350" width="140" height="8" rx="3" fill="#444"/>
  <rect x="60" y="385" width="100" height="10" rx="3" fill="#ceab8e" opacity="0.5"/>
  <rect x="80" y="410" width="120" height="8" rx="3" fill="#444"/>
  <rect x="80" y="430" width="160" height="8" rx="3" fill="#444"/>
  <!-- Graph visualization -->
  <rect x="420" y="120" width="820" height="640" rx="8" fill="#111111"/>
  <!-- Nodes -->
  <rect x="600" y="180" width="160" height="100" rx="8" fill="#0A0A0A" stroke="#ceab8e" stroke-width="2"/>
  <rect x="620" y="200" width="80" height="10" rx="3" fill="#ceab8e" opacity="0.7"/>
  <rect x="620" y="225" width="120" height="6" rx="3" fill="#333"/>
  <rect x="620" y="240" width="100" height="6" rx="3" fill="#333"/>
  <rect x="620" y="255" width="110" height="6" rx="3" fill="#333"/>
  <rect x="880" y="300" width="160" height="100" rx="8" fill="#0A0A0A" stroke="#6B8F71" stroke-width="2"/>
  <rect x="900" y="320" width="80" height="10" rx="3" fill="#6B8F71" opacity="0.7"/>
  <rect x="900" y="345" width="120" height="6" rx="3" fill="#333"/>
  <rect x="900" y="360" width="100" height="6" rx="3" fill="#333"/>
  <rect x="500" y="400" width="160" height="100" rx="8" fill="#0A0A0A" stroke="#4d6071" stroke-width="2"/>
  <rect x="520" y="420" width="80" height="10" rx="3" fill="#4d6071" opacity="0.7"/>
  <rect x="520" y="445" width="120" height="6" rx="3" fill="#333"/>
  <rect x="520" y="460" width="100" height="6" rx="3" fill="#333"/>
  <rect x="820" y="520" width="160" height="100" rx="8" fill="#0A0A0A" stroke="#f5d7b1" stroke-width="2"/>
  <rect x="840" y="540" width="80" height="10" rx="3" fill="#f5d7b1" opacity="0.7"/>
  <rect x="840" y="565" width="120" height="6" rx="3" fill="#333"/>
  <rect x="840" y="580" width="100" height="6" rx="3" fill="#333"/>
  <!-- Connections -->
  <line x1="760" y1="240" x2="880" y2="330" stroke="#333" stroke-width="2"/>
  <line x1="660" y1="280" x2="580" y2="400" stroke="#333" stroke-width="2"/>
  <line x1="660" y1="450" x2="820" y2="550" stroke="#333" stroke-width="2"/>
  <line x1="960" y1="400" x2="920" y2="520" stroke="#333" stroke-width="2"/>
</svg>
