<svg width="1280" height="800" viewBox="0 0 1280 800" fill="none" xmlns="http://www.w3.org/2000/svg">
  <rect width="1280" height="800" rx="8" fill="#0A0A0A"/>
  <rect width="1280" height="40" rx="8" fill="#1A1A1A"/>
  <circle cx="24" cy="20" r="6" fill="#FF5F57"/>
  <circle cx="44" cy="20" r="6" fill="#FFBD2E"/>
  <circle cx="64" cy="20" r="6" fill="#28CA41"/>
  <!-- Large chart area -->
  <rect x="60" y="70" width="1160" height="420" rx="12" fill="#111111"/>
  <!-- Line chart -->
  <polyline points="100,380 200,320 300,350 400,250 500,280 600,180 700,220 800,140 900,190 1000,120 1100,160 1180,100" stroke="#f5d7b1" stroke-width="3" fill="none" stroke-linecap="round" stroke-linejoin="round"/>
  <polyline points="100,400 200,370 300,390 400,340 500,360 600,300 700,330 800,280 900,310 1000,270 1100,290 1180,250" stroke="#4d6071" stroke-width="2" fill="none" stroke-linecap="round" stroke-linejoin="round" opacity="0.6"/>
  <!-- Grid -->
  <line x1="100" y1="150" x2="1180" y2="150" stroke="#1a1a1a" stroke-width="1"/>
  <line x1="100" y1="250" x2="1180" y2="250" stroke="#1a1a1a" stroke-width="1"/>
  <line x1="100" y1="350" x2="1180" y2="350" stroke="#1a1a1a" stroke-width="1"/>
  <!-- Legend -->
  <rect x="100" y="430" width="12" height="12" rx="2" fill="#f5d7b1"/>
  <rect x="120" y="432" width="80" height="8" rx="3" fill="#333"/>
  <rect x="230" y="430" width="12" height="12" rx="2" fill="#4d6071"/>
  <rect x="250" y="432" width="80" height="8" rx="3" fill="#333"/>
  <!-- Bottom stats -->
  <rect x="60" y="520" width="370" height="240" rx="12" fill="#111111"/>
  <rect x="80" y="545" width="100" height="10" rx="3" fill="#333"/>
  <rect x="80" y="575" width="60" height="24" rx="4" fill="#f5d7b1" opacity="0.7"/>
  <rect x="80" y="620" width="320" height="4" rx="2" fill="#1a1a1a"/>
  <rect x="80" y="620" width="240" height="4" rx="2" fill="#6B8F71" opacity="0.5"/>
  <rect x="80" y="650" width="320" height="4" rx="2" fill="#1a1a1a"/>
  <rect x="80" y="650" width="180" height="4" rx="2" fill="#4d6071" opacity="0.5"/>
  <rect x="455" y="520" width="370" height="240" rx="12" fill="#111111"/>
  <rect x="475" y="545" width="100" height="10" rx="3" fill="#333"/>
  <rect x="475" y="575" width="80" height="24" rx="4" fill="#6B8F71" opacity="0.7"/>
  <circle cx="620" cy="660" r="50" stroke="#ceab8e" stroke-width="6" fill="none"/>
  <circle cx="620" cy="660" r="50" stroke="#f5d7b1" stroke-width="6" fill="none" stroke-dasharray="200 120" transform="rotate(-90 620 660)"/>
  <rect x="850" y="520" width="370" height="240" rx="12" fill="#111111"/>
  <rect x="870" y="545" width="100" height="10" rx="3" fill="#333"/>
  <rect x="870" y="575" width="70" height="24" rx="4" fill="#ceab8e" opacity="0.7"/>
  <rect x="890" y="630" width="40" height="80" rx="4" fill="#4d6071" opacity="0.5"/>
  <rect x="945" y="660" width="40" height="50" rx="4" fill="#4d6071" opacity="0.5"/>
  <rect x="1000" y="640" width="40" height="70" rx="4" fill="#f5d7b1" opacity="0.5"/>
  <rect x="1055" y="670" width="40" height="40" rx="4" fill="#4d6071" opacity="0.5"/>
  <rect x="1110" y="620" width="40" height="90" rx="4" fill="#6B8F71" opacity="0.5"/>
</svg>
