<svg width="1280" height="800" viewBox="0 0 1280 800" fill="none" xmlns="http://www.w3.org/2000/svg">
  <!-- Browser chrome -->
  <rect width="1280" height="800" rx="8" fill="#0A0A0A"/>
  <rect width="1280" height="40" rx="8" fill="#1A1A1A"/>
  <circle cx="24" cy="20" r="6" fill="#FF5F57"/>
  <circle cx="44" cy="20" r="6" fill="#FFBD2E"/>
  <circle cx="64" cy="20" r="6" fill="#28CA41"/>
  <rect x="200" y="12" width="400" height="16" rx="8" fill="#0A0A0A"/>

  <!-- Sidebar -->
  <rect x="0" y="40" width="240" height="760" fill="#111111"/>
  <rect x="20" y="70" width="120" height="14" rx="4" fill="#333"/>
  <rect x="20" y="110" width="200" height="10" rx="4" fill="#222"/>
  <rect x="20" y="135" width="200" height="10" rx="4" fill="#222"/>
  <rect x="20" y="160" width="200" height="10" rx="4" fill="#1E293B"/>
  <rect x="20" y="160" width="200" height="10" rx="4" fill="#4d6071" opacity="0.4"/>
  <rect x="20" y="185" width="200" height="10" rx="4" fill="#222"/>
  <rect x="20" y="210" width="200" height="10" rx="4" fill="#222"/>

  <!-- Main content area - chart -->
  <rect x="270" y="70" width="680" height="320" rx="8" fill="#111111"/>
  <!-- Chart bars -->
  <rect x="310" y="280" width="40" height="90" rx="4" fill="#4d6071"/>
  <rect x="370" y="240" width="40" height="130" rx="4" fill="#4d6071"/>
  <rect x="430" y="200" width="40" height="170" rx="4" fill="#6B8F71"/>
  <rect x="490" y="160" width="40" height="210" rx="4" fill="#6B8F71"/>
  <rect x="550" y="220" width="40" height="150" rx="4" fill="#4d6071"/>
  <rect x="610" y="140" width="40" height="230" rx="4" fill="#ceab8e"/>
  <rect x="670" y="180" width="40" height="190" rx="4" fill="#4d6071"/>
  <rect x="730" y="120" width="40" height="250" rx="4" fill="#f5d7b1"/>
  <rect x="790" y="190" width="40" height="180" rx="4" fill="#4d6071"/>
  <rect x="850" y="230" width="40" height="140" rx="4" fill="#4d6071"/>

  <!-- Grid line hints -->
  <line x1="290" y1="160" x2="910" y2="160" stroke="#222" stroke-width="1"/>
  <line x1="290" y1="230" x2="910" y2="230" stroke="#222" stroke-width="1"/>
  <line x1="290" y1="300" x2="910" y2="300" stroke="#222" stroke-width="1"/>

  <!-- Stats cards -->
  <rect x="270" y="420" width="210" height="100" rx="8" fill="#111111"/>
  <rect x="290" y="445" width="80" height="10" rx="4" fill="#333"/>
  <rect x="290" y="475" width="120" height="20" rx="4" fill="#f5d7b1" opacity="0.8"/>

  <rect x="505" y="420" width="210" height="100" rx="8" fill="#111111"/>
  <rect x="525" y="445" width="80" height="10" rx="4" fill="#333"/>
  <rect x="525" y="475" width="100" height="20" rx="4" fill="#6B8F71" opacity="0.8"/>

  <rect x="740" y="420" width="210" height="100" rx="8" fill="#111111"/>
  <rect x="760" y="445" width="80" height="10" rx="4" fill="#333"/>
  <rect x="760" y="475" width="110" height="20" rx="4" fill="#4d6071" opacity="0.8"/>

  <!-- Right panel -->
  <rect x="980" y="70" width="280" height="450" rx="8" fill="#111111"/>
  <rect x="1000" y="95" width="140" height="12" rx="4" fill="#333"/>
  <rect x="1000" y="125" width="240" height="8" rx="4" fill="#1a1a1a"/>
  <rect x="1000" y="145" width="240" height="8" rx="4" fill="#1a1a1a"/>
  <rect x="1000" y="165" width="200" height="8" rx="4" fill="#1a1a1a"/>
  <rect x="1000" y="195" width="240" height="8" rx="4" fill="#1a1a1a"/>
  <rect x="1000" y="215" width="240" height="8" rx="4" fill="#1a1a1a"/>
  <circle cx="1020" cy="270" r="60" stroke="#4d6071" stroke-width="8" fill="none"/>
  <circle cx="1020" cy="270" r="60" stroke="#f5d7b1" stroke-width="8" fill="none" stroke-dasharray="220 160" transform="rotate(-90 1020 270)"/>
</svg>
